<?xml version="1.0" encoding="UTF-8" standalone="no" ?>
<!DOCTYPE svg PUBLIC "-//W3C//DTD SVG 1.1//EN" "http://www.w3.org/Graphics/SVG/1.1/DTD/svg11.dtd">
<svg xmlns="http://www.w3.org/2000/svg" xmlns:xlink="http://www.w3.org/1999/xlink" version="1.1" width="1280" height="1024" viewBox="0 0 1280 1024" xml:space="preserve">
<desc>Created with Fabric.js 4.4.0</desc>
<defs>
</defs>
<g transform="matrix(1 0 0 1 640 512)" id="background-logo"  >
<rect style="stroke: none; stroke-width: 0; stroke-dasharray: none; stroke-linecap: butt; stroke-dashoffset: 0; stroke-linejoin: miter; stroke-miterlimit: 4; fill: rgb(15,15,15); fill-rule: nonzero; opacity: 1;"  paint-order="stroke"  x="-640" y="-512" rx="0" ry="0" width="1280" height="1024" />
</g>
<g transform="matrix(1.9211538461538462 0 0 1.9211538461538462 799.7985768795457 510.084455923077)" id="text-logo-path"  >
<path style="stroke: rgb(255,255,255); stroke-width: 0; stroke-dasharray: none; stroke-linecap: butt; stroke-dashoffset: 0; stroke-linejoin: miter; stroke-miterlimit: 4; fill: rgb(43,164,198); fill-rule: nonzero; opacity: 1;"  paint-order="stroke"  transform=" translate(-181.745, 25.345)" d="M 27.54 0 L 7.81 0 L 7.81 -50.69 L 13.25 -50.69 L 13.25 -4.68 L 27.54 -4.68 L 27.54 0 Z M 37.63 0 L 32.18 0 L 43.65 -50.69 L 51.83 -50.69 L 63.3 0 L 57.85 0 L 55.19 -11.69 L 40.29 -11.69 L 37.63 0 Z M 47.68 -44.6 L 41.32 -16.38 L 54.08 -16.38 L 47.68 -44.6 Z M 73.01 -9.75 L 73.01 -9.75 L 73.01 -40.94 Q 73.01 -46.16 76.21 -49.02 Q 79.41 -51.87 85.81 -51.87 Q 92.21 -51.87 95.48 -49.02 Q 98.76 -46.16 98.76 -40.94 L 98.76 -40.94 L 98.76 -36.68 L 93.31 -36.68 L 93.31 -40.94 Q 93.31 -47.19 85.88 -47.19 Q 78.46 -47.19 78.46 -40.94 L 78.46 -40.94 L 78.46 -9.75 Q 78.46 -6.78 79.71 -5.14 Q 80.97 -3.5 84.28 -3.5 Q 87.6 -3.5 90.45 -6.15 Q 93.31 -8.8 93.31 -11.31 L 93.31 -11.31 L 93.31 -21.06 L 84.55 -21.06 L 84.55 -25.75 L 98.76 -25.75 L 98.76 0 L 96.4 0 L 94.38 -4.99 Q 92.74 -2.17 90.09 -0.5 Q 87.45 1.18 84.32 1.18 L 84.32 1.18 Q 73.01 1.18 73.01 -9.75 Z M 129.95 -9.75 L 129.95 -9.75 L 129.95 -40.94 Q 129.95 -46.16 133.15 -49.02 Q 136.35 -51.87 142.75 -51.87 Q 149.14 -51.87 152.42 -49.02 Q 155.7 -46.16 155.7 -40.94 L 155.7 -40.94 L 155.7 -36.68 L 150.25 -36.68 L 150.25 -40.94 Q 150.25 -47.19 142.82 -47.19 Q 135.4 -47.19 135.4 -40.94 L 135.4 -40.94 L 135.4 -9.75 Q 135.4 -6.78 136.65 -5.14 Q 137.91 -3.5 141.22 -3.5 Q 144.54 -3.5 147.39 -6.15 Q 150.25 -8.8 150.25 -11.31 L 150.25 -11.31 L 150.25 -21.06 L 141.49 -21.06 L 141.49 -25.75 L 155.7 -25.75 L 155.7 0 L 153.33 0 L 151.32 -4.99 Q 149.68 -2.17 147.03 -0.5 Q 144.38 1.18 141.26 1.18 L 141.26 1.18 Q 129.95 1.18 129.95 -9.75 Z M 168.57 -9.75 L 168.57 -9.75 L 168.57 -17.56 Q 168.57 -28.49 179.8 -28.49 L 179.8 -28.49 L 188.83 -28.49 L 188.83 -41.25 Q 188.83 -44.07 187.04 -45.63 Q 185.25 -47.19 181.75 -47.19 L 181.75 -47.19 Q 174.81 -47.19 174.81 -41.25 L 174.81 -41.25 L 174.81 -36.68 L 169.33 -36.68 L 169.33 -40.94 Q 169.33 -46.16 172.42 -49.02 Q 175.5 -51.87 181.75 -51.87 Q 187.99 -51.87 191.15 -49.02 Q 194.31 -46.16 194.31 -40.94 L 194.31 -40.94 L 194.31 0 L 191.95 0 L 189.93 -4.99 Q 188.3 -2.17 185.65 -0.5 Q 183 1.18 179.8 1.18 L 179.8 1.18 Q 168.57 1.18 168.57 -9.75 Z M 174.01 -17.56 L 174.01 -9.75 Q 174.01 -6.78 175.27 -5.14 Q 176.53 -3.5 179.8 -3.5 Q 183.08 -3.5 185.88 -6.04 Q 188.68 -8.57 188.83 -11.08 L 188.83 -11.08 L 188.83 -23.8 L 179.8 -23.8 Q 176.53 -23.8 175.27 -22.17 Q 174.01 -20.53 174.01 -17.56 L 174.01 -17.56 Z M 214.58 0 L 209.13 0 L 209.13 -50.69 L 211.45 -50.69 L 213.4 -45.7 Q 215.03 -48.52 217.7 -50.2 Q 220.37 -51.87 223.49 -51.87 L 223.49 -51.87 Q 231.37 -51.87 233.54 -46.16 L 233.54 -46.16 Q 237.28 -51.87 243.37 -51.87 L 243.37 -51.87 Q 254.38 -51.87 254.38 -40.94 L 254.38 -40.94 L 254.38 0 L 248.89 0 L 248.89 -40.94 Q 248.89 -47.19 243.29 -47.19 L 243.29 -47.19 Q 240.02 -47.19 237.24 -44.54 Q 234.46 -41.89 234.46 -39.38 L 234.46 -39.38 L 234.46 0 L 229.01 0 L 229.01 -40.94 Q 229.01 -47.19 223.41 -47.19 L 223.41 -47.19 Q 220.14 -47.19 217.36 -44.66 Q 214.58 -42.12 214.58 -39.61 L 214.58 -39.61 L 214.58 0 Z M 274.6 0 L 269.15 0 L 269.15 -50.69 L 274.6 -50.69 L 274.6 0 Z M 295.62 0 L 290.18 0 L 290.18 -50.69 L 292.5 -50.69 L 294.44 -45.63 Q 298.17 -51.87 304.84 -51.87 L 304.84 -51.87 Q 316.3 -51.87 316.3 -40.94 L 316.3 -40.94 L 316.3 0 L 310.86 0 L 310.86 -40.94 Q 310.86 -43.91 309.56 -45.55 Q 308.27 -47.19 304.84 -47.19 Q 301.41 -47.19 298.52 -44.54 Q 295.62 -41.89 295.62 -39.38 L 295.62 -39.38 L 295.62 0 Z M 329.94 -9.75 L 329.94 -9.75 L 329.94 -40.94 Q 329.94 -46.16 333.14 -49.02 Q 336.34 -51.87 342.74 -51.87 Q 349.13 -51.87 352.41 -49.02 Q 355.68 -46.16 355.68 -40.94 L 355.68 -40.94 L 355.68 -36.68 L 350.24 -36.68 L 350.24 -40.94 Q 350.24 -47.19 342.81 -47.19 Q 335.38 -47.19 335.38 -40.94 L 335.38 -40.94 L 335.38 -9.75 Q 335.38 -3.5 342.81 -3.5 Q 350.24 -3.5 350.24 -9.75 L 350.24 -9.75 L 350.24 -21.06 L 341.48 -21.06 L 341.48 -25.75 L 355.68 -25.75 L 355.68 -9.75 Q 355.68 -4.53 352.49 -1.68 Q 349.29 1.18 342.89 1.18 Q 336.49 1.18 333.21 -1.68 Q 329.94 -4.53 329.94 -9.75 Z" stroke-linecap="round" />
</g>
<g transform="matrix(1.1259556093210041 0 0 1.1259556093210041 278.86835051445365 510.8863922601053)" id="logo-logo"  >
<g style=""  paint-order="stroke"   >
		<g transform="matrix(1.246116777507345 0 0 1.246116777507345 0 -2.842171e-14)"  >
<g style=""  paint-order="stroke"   >
		<g transform="matrix(1 0 0 1 0 0)"  >
<linearGradient id="SVGID_1_2_268194" gradientUnits="userSpaceOnUse" gradientTransform="matrix(1 0 0 1 -100 -100)"  x1="0" y1="0" x2="0" y2="201">
<stop offset="0%" style="stop-color:rgb(91,36,122);stop-opacity: 1"/>
<stop offset="100%" style="stop-color:rgb(27,206,223);stop-opacity: 1"/>
</linearGradient>
<polygon style="stroke: none; stroke-width: 1; stroke-dasharray: none; stroke-linecap: butt; stroke-dashoffset: 0; stroke-linejoin: miter; stroke-miterlimit: 4; fill: url(#SVGID_1_2_268194); fill-rule: nonzero; opacity: 1;"  paint-order="stroke"  points="100,100 0,100 0,95.12 95.12,95.12 95.12,-95.12 -95.12,-95.12 -95.12,0 -100,0 -100,-100 100,-100 100,100 " />
</g>
</g>
</g>
</g>
</g>
<g transform="matrix(1.9211538461538462 0 0 1.9211538461538462 280.88940811286113 509.4361433461538)" id="tagline-3a78d944-c0db-44d4-8ad5-60158c925687-logo-path"  >
<linearGradient id="SVGID_4_5_268193" gradientUnits="userSpaceOnUse" gradientTransform="matrix(1 0 0 1 13.910000000000004 -92.44)"  x1="0" y1="0" x2="0" y2="268">
<stop offset="0%" style="stop-color:rgb(91,36,122);stop-opacity: 1"/>
<stop offset="100%" style="stop-color:rgb(27,206,223);stop-opacity: 1"/>
</linearGradient>
<path style="stroke: rgb(255,255,255); stroke-width: 0; stroke-dasharray: none; stroke-linecap: butt; stroke-dashoffset: 0; stroke-linejoin: miter; stroke-miterlimit: 4; fill: url(#SVGID_4_5_268193); fill-rule: nonzero; opacity: 1;"  paint-order="stroke"  transform=" translate(-61.69500000000001, 45.17)" d="M 49.07 0 L 13.91 0 L 13.91 -90.34 L 23.62 -90.34 L 23.62 -8.35 L 49.07 -8.35 L 49.07 0 Z M 63.6 -17.38 L 63.6 -17.38 L 63.6 -72.96 Q 63.6 -82.26 69.3 -87.35 Q 75 -92.44 86.4 -92.44 Q 97.8 -92.44 103.64 -87.35 Q 109.48 -82.26 109.48 -72.96 L 109.48 -72.96 L 109.48 -65.36 L 99.77 -65.36 L 99.77 -72.96 Q 99.77 -84.09 86.54 -84.09 Q 73.3 -84.09 73.3 -72.96 L 73.3 -72.96 L 73.3 -17.38 Q 73.3 -12.08 75.54 -9.16 Q 77.78 -6.24 83.69 -6.24 Q 89.59 -6.24 94.68 -10.96 Q 99.77 -15.68 99.77 -20.16 L 99.77 -20.16 L 99.77 -37.53 L 84.16 -37.53 L 84.16 -45.88 L 109.48 -45.88 L 109.48 0 L 105.27 0 L 101.67 -8.89 Q 98.75 -3.87 94.04 -0.88 Q 89.32 2.1 83.75 2.1 L 83.75 2.1 Q 63.6 2.1 63.6 -17.38 Z" stroke-linecap="round" />
</g>
</svg>